# xmcd
#
# Track frame offsets:
#	150
#	15978
#	30130
#	44403
#	56743
#	66965
#	77923
#	92815
#	107481
#	118326
#	133401
#	163394
#	174017
#	187597
#	200776
#	215239
#	229120
#	242225
#	253604
#	274220
#	292085
#	307925
#	325353
#
# Disc length: 4694 seconds
# Revision: 0
# Processed by: cddbd v1.5.2PL0 Copyright (c) Steve Scherf et al.
# Submitted via: dBpowerAMP V12.0
#
DISCID=55125417
DTITLE=Various Artist - OLD and FAT: FAT Favorites 8 [CD8 of 27)
DYEAR=1976
DGENRE=Country
TTITLE0=Kris Kristofferson - If You Dont Like Hank Williams
TTITLE1=Moe Bandy - Hank Williams, You Wrote My Life
TTITLE2=Hank Williams, Jr. - Whiskey Bent and Hell Bound
TTITLE3=Jimmy Buffett - Why Don't We Get Drunk
TTITLE4=Danny (Gatton) and the Fat Boys - Hauled Off and Loved Her
TTITLE5=Katy Moffatt - Ninety Miles an Hour (Down a Dead-End Street)
TTITLE6=Delbert McClinton - Honky Tonkin' (I Guess I Done Me Some)
TTITLE7=Asleep at the Wheel - The Letter That Johnny Walker Read
TTITLE8=Delbert McClinton - Victim of Life's Circumstances
TTITLE9=Ellen McIlwaine - I Don't Want to Play
TTITLE10=John Baldry - Don't Try to Lay No Boogie Woogie on the King of Rock and Roll
TTITLE11=Tom T. Hall - The Great East Broadway Onion Championship of 1978
TTITLE12=Danny O'Keefe - Good Time Charlie's Got the Blues
TTITLE13=Moe Bandy - Bandy the Rodeo Clown
TTITLE14=Clarence "Gatemouth" Brown - Monroe, Louisiana
TTITLE15=Steve Goodman - Chicken Cordon Bleus
TTITLE16=Jesse Winchester - Twigs and Seeds
TTITLE17=Taj Mahal - Cakewalk into Town
TTITLE18=Danny O'Keefe - Magdelena
TTITLE19=The Lost Gonzo Band - The Last Thing I Needed
TTITLE20=Jim Post - Goodbye to Tennessee
TTITLE21=Randy Newman - Rider in the Rain
TTITLE22=Michael Nesmith - Rio
EXTD=
EXTT0=
EXTT1=
EXTT2=
EXTT3=
EXTT4=
EXTT5=
EXTT6=
EXTT7=
EXTT8=
EXTT9=
EXTT10=
EXTT11=
EXTT12=
EXTT13=
EXTT14=
EXTT15=
EXTT16=
EXTT17=
EXTT18=
EXTT19=
EXTT20=
EXTT21=
EXTT22=
PLAYORDER=
